# AST/ASF file generated using VICON BodyLanguage
# -----------------------------------------------
:version 1.10
:name VICON
:units
  mass 1.0
  length 0.45
  angle deg
:documentation
   .ast/.asf automatically generated from VICON data using
   VICON BodyBuilder and BodyLanguage model FoxedUp or BRILLIANT.MOD
:root
   order TX TY TZ RX RY RZ
   axis XYZ
   position 0 0 0  
   orientation 0 0 0 
:bonedata
  begin
     id 1 
     name lhipjoint
     direction 0.541323 -0.757556 0.364798 
     length 2.47576 
     axis 0 0 0  XYZ
  end
  begin
     id 2 
     name lfemur
     direction 0.34202 -0.939693 0  
     length 7.46493  
     axis 0 0 20  XYZ
    dof rx ry rz
    limits (-160.0 20.0)
           (-70.0 70.0)
           (-60.0 70.0)
  end
  begin
     id 3 
     name ltibia
     direction 0.34202 -0.939693 0   
     length 7.73805   
     axis 0 0 20   XYZ
    dof rx
    limits (-10.0 170.0)
  end
  begin
     id 4 
     name lfoot
     direction 0.107174 -0.294458 0.949636   
     length 2.25864   
     axis -90 7.62852e-016 20   XYZ
    dof rx rz
    limits (-45.0 90.0)
           (-70.0 20.0)
  end
  begin
     id 5 
     name ltoes
     direction 1.53606e-011 -4.21934e-011 1   
     length 1.12451   
     axis -90 7.62852e-016 20   XYZ
    dof rx
    limits (-90.0 20.0)
  end
  begin
     id 6 
     name rhipjoint
     direction -0.524745 -0.766967 0.36933   
     length 2.44538  
     axis 0 0 0  XYZ 
  end
  begin
     id 7 
     name rfemur
     direction -0.34202 -0.939693 0   
     length 7.61604   
     axis 0 0 -20   XYZ
    dof rx ry rz
    limits (-160.0 20.0)
           (-70.0 70.0)
           (-70.0 60.0)
  end
  begin
     id 8 
     name rtibia
     direction -0.34202 -0.939693 0   
     length 7.61056   
     axis 0 0 -20   XYZ
    dof rx
    limits (-10.0 170.0)
 end
 begin
     id 9 
     name rfoot
     direction -0.12616 -0.346623 0.929482   
     length 2.46372  
     axis -90 -7.62852e-016 -20   XYZ
    dof rx rz
    limits (-45.0 90.0)
           (-20.0 70.0)
  end
  begin
     id 10 
     name rtoes
     direction -1.53531e-011 -4.22004e-011 1   
     length 1.21611   
     axis -90 -7.62852e-016 -20   XYZ
    dof rx
    limits (-90.0 20.0)
  end
  begin
     id 11 
     name lowerback
     direction -0.000778023 0.997293 -0.0735223   
     length 2.06139   
     axis 0 0 0   XYZ
    dof rx ry rz
    limits (-20.0 45.0)
           (-30.0 30.0)
           (-30.0 30.0)
  end
  begin
     id 12 
     name upperback
     direction 0.0222598 0.999722 -0.0078355   
     length 2.06383   
     axis 0 0 0   XYZ
    dof rx ry rz
    limits (-20.0 45.0)
           (-30.0 30.0)
           (-30.0 30.0)
  end
  begin
     id 13 
     name thorax
     direction 0.0219654 0.999405 0.0265994   
     length 2.07163   
     axis 0 0 0   XYZ
    dof rx ry rz
    limits (-20.0 45.0)
           (-30.0 30.0)
           (-30.0 30.0)
  end
  begin
     id 14 
     name lowerneck
     direction 0.0213282 0.988147 0.15202   
     length 1.75969   
     axis 0 0 0   XYZ
    dof rx ry rz
    limits (-20.0 45.0)
           (-30.0 30.0)
           (-30.0 30.0)
  end
  begin
     id 15 
     name upperneck
     direction -0.0546456 0.982624 -0.177379   
     length 1.79244   
     axis 0 0 0   XYZ
    dof rx ry rz
    limits (-20.0 45.0)
           (-30.0 30.0)
           (-30.0 30.0)
  end
  begin
     id 16
     name head
     direction -0.0199987 0.996855 -0.076686  
     length 1.80555  
     axis 0 0 0   XYZ
    dof rx ry rz
    limits (-20.0 45.0)
           (-30.0 30.0)
           (-30.0 30.0)
  end
  begin
     id 17 
     name lclavicle
     direction 0.929565 0.363219 -0.063096  
     length 3.55722  
     axis 0 0 0   XYZ
    dof ry rz
    limits (-20.0 10.0)
           (0.0 20.0)
  end
  begin
     id 18 
     name lhumerus
     direction 1 -4.48993e-011 -2.36203e-027   
     length 4.92785   
     axis 180 -30 -90   XYZ
    dof rx ry rz
    limits (-60.0 90.0)
           (-90.0 90.0)
           (-90.0 90.0)
  end
  begin
     id 19
     name lradius
     direction 1 -4.48947e-011 2.02997e-027   
     length 3.44052   
     axis 180 -30 -90   XYZ
    dof rx
    limits (-10.0 170.0)
  end
  begin
     id 20
     name lwrist
     direction 1 -4.48962e-011 1.45991e-027   
     length 1.72026   
     axis 1.49639e-024 90 90   XYZ
    dof ry
    limits (-180.0 0.0)
 end
  begin
     id 21 
     name lhand
     direction 1 -4.48984e-011 2.91906e-027   
     length 0.654326   
     axis -1.863e-015 90 90   XYZ
    dof rx rz
    limits (-90.0 90.0)
           (-45.0 45.0)
  end
  begin
     id 22 
     name lfingers
     direction 1 -4.48961e-011 5.83968e-027   
     length 0.527534   
     axis -3.72598e-015 90 90   XYZ
    dof rx
    limits (0.0 90.0)
  end
  begin
     id 23
     name lthumb
     direction 0.707107 -6.34963e-011 0.707107   
     length 0.757437   
     axis -90 45 -6.68868e-015   XYZ
    dof rx rz
    limits (-45.0 45.0)
           (-45.0 45.0)
  end
  begin
     id 24 
     name rclavicle
     direction -0.902944 0.422599 -0.0781198   
     length 3.54432  
     axis 0 0 0   XYZ 
    dof ry rz
    limits (-10.0 20.0)
           (-20.0 0.0)
  end
  begin
     id 25 
     name rhumerus
     direction -1 -4.48953e-011 -4.75835e-028  
     length 5.09181   
     axis 180 30 90   XYZ
    dof rx ry rz
    limits (-90.0 60.0)
           (-90.0 90.0)
           (-90.0 90.0)
  end
  begin
     id 26 
     name rradius
     direction -1 -4.48986e-011 -3.25889e-027   
     length 3.49865   
     axis 180 30 90   XYZ
    dof rx
    limits (-10.0 170.0)
  end
  begin
     id 27 
     name rwrist
     direction -1 -4.48963e-011 1.45989e-027   
     length 1.74933   
     axis 1.49639e-024 -90 -90   XYZ
    dof ry
    limits (-180.0 0.0)
  end
  begin
     id 28
     name rhand
     direction -1 -4.49003e-011 2.91844e-027   
     length 0.66641   
     axis -1.863e-015 -90 -90   XYZ
    dof rx rz
    limits (-90.0 90.0)
           (-45.0 45.0)
  end
  begin
     id 29
     name rfingers
     direction -1 -4.48973e-011 5.83886e-027   
     length 0.537277   
     axis -3.72598e-015 -90 -90   XYZ
    dof rx
    limits (0.0 90.0)
  end
  begin
     id 30
     name rthumb
     direction -0.707107 -6.34976e-011 0.707107   
     length 0.771425   
     axis -90 -45 6.68868e-015   XYZ
    dof rx rz
    limits (-45.0 45.0)
           (-45.0 45.0)
  end
:hierarchy
  begin
    root lhipjoint rhipjoint lowerback
    lhipjoint lfemur
    lfemur ltibia
    ltibia lfoot
    lfoot ltoes
    rhipjoint rfemur
    rfemur rtibia
    rtibia rfoot
    rfoot rtoes
    lowerback upperback
    upperback thorax
    thorax lowerneck lclavicle rclavicle
    lowerneck upperneck
    upperneck head
    lclavicle lhumerus
    lhumerus lradius
    lradius lwrist
    lwrist lhand lthumb
    lhand lfingers
    rclavicle rhumerus
    rhumerus rradius
    rradius rwrist
    rwrist rhand rthumb
    rhand rfingers
  end

#!OML:ASF H:\LiuWeirdWalks\Patient Classification 1\Patient 1\Session 1\male.ASF
:FULLY-SPECIFIED
:DEGREES
70
root 1.5274 17.872 -28.9569 9.36063 -2.20618 -8.46682
lowerback 7.00825 -0.176158 -1.67426
upperback -1.03661 -0.197003 3.78467
thorax -5.00025 0.00632016 4.92342
lowerneck -20.8708 -1.56966 5.30458
upperneck 27.1616 -3.10331 -3.40666
head 12.3045 -1.2944 -2.70509
rclavicle -3.32964e-015 -3.27995e-014
rhumerus -39.9598 -7.04625 -74.9523
rradius 39.6032
rwrist -7.44175
rhand -15.0361 -6.27995
rfingers 7.12502
rthumb 11.1299 -35.9648
lclavicle -3.32964e-015 -3.27995e-014
lhumerus -31.9896 6.68763 77.1725
lradius 30.1896
lwrist 3.62744
lhand -13.4617 -3.87856
lfingers 7.12502
lthumb 12.6481 25.7185
rfemur -2.86979 -6.37846 18.173
rtibia 66.7143
rfoot 12.3629 -10.0979
rtoes -0.827773
lfemur -19.6082 7.19286 -17.7729
ltibia 33.0271
lfoot -17.7951 8.71957
ltoes -7.24448
71
root 1.52565 17.8743 -28.9572 9.36905 -2.18166 -8.49631
lowerback 7.05104 -0.0815531 -1.57436
upperback -1.00407 -0.0683569 3.65717
thorax -5.00256 0.0649779 4.71705
lowerneck -20.8856 -1.73811 5.14201
upperneck 27.2574 -3.38504 -3.09495
head 12.3416 -1.3913 -2.60709
rclavicle -4.91992e-015 3.85642e-014
rhumerus -40.0294 -7.45035 -75.0209
rradius 39.6783
rwrist -7.42108
rhand -15.0061 -6.2431
rfingers 7.12502
rthumb 11.1589 -35.9264
lclavicle -4.91992e-015 3.85642e-014
lhumerus -31.7615 6.28912 77.1635
lradius 29.9827
lwrist 3.59852
lhand -13.4062 -3.80381
lfingers 7.12502
lthumb 12.7016 25.7899
rfemur -3.03043 -6.47641 18.2413
rtibia 66.8179
rfoot 12.3461 -10.05
rtoes -0.8241
lfemur -19.5977 7.07426 -17.7259
ltibia 32.9852
lfoot -17.7465 8.81255
ltoes -7.26989
72
root 1.52441 17.8763 -28.9574 9.37994 -2.16086 -8.51554
lowerback 7.08421 -0.0328764 -1.5194
upperback -0.956996 -0.00275542 3.58647
thorax -4.97779 0.0937922 4.60325
lowerneck -20.9617 -1.80566 5.0215
upperneck 27.3532 -3.50459 -2.9013
head 12.3968 -1.4277 -2.53679
rclavicle 1.40143e-014 1.98785e-015
rhumerus -40.0133 -7.65686 -75.0843
rradius 39.7301
rwrist -7.42274
rhand -14.9645 -6.21059
rfingers 7.12502
rthumb 11.199 -35.8917
lclavicle 1.40143e-014 1.98785e-015
lhumerus -31.5639 6.07967 77.1739
lradius 29.7926
lwrist 3.54567
lhand -13.3479 -3.75728
lfingers 7.12502
lthumb 12.7579 25.8329
rfemur -3.20288 -6.56326 18.2967
rtibia 66.944
rfoot 12.3257 -10.0083
rtoes -0.819355
lfemur -19.5874 6.91364 -17.6979
ltibia 32.9351
lfoot -17.6819 8.97577
ltoes -7.2984
73
root 1.52385 17.8784 -28.9572 9.38132 -2.14296 -8.51722
lowerback 7.09985 -0.0560356 -1.48723
upperback -0.812038 -0.0340819 3.58795
thorax -4.83193 0.0727142 4.58795
lowerneck -21.2982 -1.84887 4.64611
upperneck 27.4832 -3.53256 -2.64484
head 12.5302 -1.43999 -2.39176
rclavicle 1.49089e-015 -3.22031e-014
rhumerus -39.706 -7.61903 -75.1666
rradius 39.7236
rwrist -7.4353
rhand -14.9193 -6.18243
rfingers 7.12502
rthumb 11.2426 -35.8612
lclavicle 1.49089e-015 -3.22031e-014
lhumerus -31.2473 6.21397 77.2118
lradius 29.598
lwrist 3.43262
lhand -13.2847 -3.72219
lfingers 7.12502
lthumb 12.8187 25.8642
rfemur -3.37027 -6.65006 18.3224
rtibia 67.0893
rfoot 12.3075 -9.95194
rtoes -0.816602
lfemur -19.5595 6.70568 -17.6945
ltibia 32.8745
lfoot -17.6062 9.20528
ltoes -7.31573
74
root 1.52393 17.88 -28.9568 9.37025 -2.12662 -8.50191
lowerback 7.12326 -0.103549 -1.49228
upperback -0.691982 -0.0993856 3.61706
thorax -4.71366 0.0370036 4.62729
lowerneck -21.5596 -1.80203 4.39791
upperneck 27.5709 -3.42387 -2.53699
head 12.6314 -1.40033 -2.29925
rclavicle 4.22417e-015 -1.15295e-014
rhumerus -39.4329 -7.46137 -75.2316
rradius 39.705
rwrist -7.45499
rhand -14.8716 -6.14852
rfingers 7.12502
rthumb 11.2886 -35.8247
lclavicle 4.22417e-015 -1.15295e-014
lhumerus -31.023 6.42769 77.2549
lradius 29.4276
lwrist 3.30064
lhand -13.1964 -3.67949
lfingers 7.12502
lthumb 12.9039 25.9016
rfemur -3.52928 -6.73258 18.3222
rtibia 67.2538
rfoot 12.2974 -9.89308
rtoes -0.792324
lfemur -19.5107 6.45537 -17.7129
ltibia 32.8037
lfoot -17.5254 9.4816
ltoes -7.29623
75
root 1.52459 17.8814 -28.9559 9.35254 -2.11397 -8.47725
lowerback 7.14377 -0.212229 -1.54456
upperback -0.587756 -0.247173 3.71494
thorax -4.60246 -0.0373656 4.77544
lowerneck -21.8172 -1.59983 4.2686
upperneck 27.6564 -3.06887 -2.63429
head 12.7343 -1.26858 -2.26406
rclavicle 1.37658e-014 1.98785e-015
rhumerus -39.1406 -7.02152 -75.2874
rradius 39.6813
rwrist -7.51246
rhand -14.825 -6.127
rfingers 7.12502
rthumb 11.3335 -35.8008
lclavicle 1.37658e-014 1.98785e-015
lhumerus -30.9236 6.88664 77.3024
lradius 29.296
lwrist 3.14097
lhand -13.1076 -3.65045
lfingers 7.12502
lthumb 12.9895 25.9252
rfemur -3.68564 -6.80883 18.3051
rtibia 67.4346
rfoot 12.2943 -9.82186
rtoes -0.767062
lfemur -19.4451 6.18002 -17.7443
ltibia 32.7245
lfoot -17.4486 9.78361
ltoes -7.23705
76
root 1.52542 17.8827 -28.9547 9.33256 -2.10859 -8.44734
lowerback 7.1727 -0.287068 -1.59395
upperback -0.557591 -0.34941 3.77651
thorax -4.5772 -0.0871175 4.87991
lowerneck -21.8476 -1.40664 4.27979
upperneck 27.6933 -2.74665 -2.79273
head 12.7663 -1.1469 -2.27508
rclavicle 1.42131e-014 -3.18055e-014
rhumerus -39.0667 -6.65043 -75.3297
rradius 39.7021
rwrist -7.5784
rhand -14.7798 -6.12375
rfingers 7.12502
rthumb 11.3772 -35.7951
lclavicle 1.42131e-014 -3.18055e-014
lhumerus -30.9556 7.16418 77.3359
lradius 29.2059
lwrist 3.0194
lhand -13.0281 -3.60827
lfingers 7.12502
lthumb 13.0661 25.9625
rfemur -3.84524 -6.87398 18.2788
rtibia 67.6324
rfoot 12.304 -9.74577
rtoes -0.735184
lfemur -19.3705 5.90515 -17.783
ltibia 32.6409
lfoot -17.3793 10.0863
ltoes -7.13782
77
root 1.52645 17.8839 -28.9534 9.31826 -2.11669 -8.41895
lowerback 7.20637 -0.335779 -1.65934
upperback -0.580169 -0.417427 3.82611
thorax -4.6127 -0.117657 4.97829
lowerneck -21.7186 -1.18181 4.46583
upperneck 27.6779 -2.40197 -3.05559
head 12.7418 -1.01238 -2.34779
rclavicle -3.18055e-015 -1.59028e-015
rhumerus -39.1436 -6.30303 -75.3567
rradius 39.7601
rwrist -7.65761
rhand -14.7366 -6.12625
rfingers 7.12502
rthumb 11.4188 -35.7953
lclavicle -3.18055e-015 -1.59028e-015
lhumerus -31.0866 7.32904 77.3701
lradius 29.1577
lwrist 2.95526
lhand -12.96 -3.58858
lfingers 7.12502
lthumb 13.1318 25.9779
rfemur -4.02268 -6.9172 18.2535
rtibia 67.8496
rfoot 12.3304 -9.66929
rtoes -0.693504
lfemur -19.2985 5.6683 -17.8238
ltibia 32.5566
lfoot -17.3236 10.3582
ltoes -6.99754
78
root 1.52725 17.8849 -28.9524 9.31188 -2.13301 -8.38305
lowerback 7.24551 -0.384193 -1.76547
upperback -0.647011 -0.487111 3.88777
thorax -4.69684 -0.146082 5.1141
lowerneck -21.4836 -0.892432 4.80408
upperneck 27.64 -1.97514 -3.44271
head 12.6891 -0.842645 -2.47857
rclavicle -2.11209e-014 5.24792e-014
rhumerus -39.3184 -5.89348 -75.3712
rradius 39.8411
rwrist -7.75287
rhand -14.7024 -6.14012
rfingers 7.12502
rthumb 11.4518 -35.8074
lclavicle -2.11209e-014 5.24792e-014
lhumerus -31.3272 7.49329 77.403
lradius 29.1472
lwrist 2.89728
lhand -12.9354 -3.59367
lfingers 7.12502
lthumb 13.1555 25.9713
rfemur -4.21992 -6.94363 18.2234
rtibia 68.0882
rfoot 12.363 -9.59951
rtoes -0.671454
lfemur -19.2378 5.48811 -17.8745
ltibia 32.4765
lfoot -17.2821 10.5775
ltoes -6.84443
79
root 1.52763 17.8859 -28.9521 9.32402 -2.16532 -8.3419
lowerback 7.28096 -0.336211 -1.82405
upperback -0.702178 -0.42836 3.85395
thorax -4.78044 -0.11317 5.10709
lowerneck -21.2399 -0.812699 5.00862
upperneck 27.5798 -1.87529 -3.58898
head 12.6159 -0.797671 -2.54727
rclavicle -5.06901e-015 4.17448e-015
rhumerus -39.5501 -5.85112 -75.3862
rradius 39.9336
rwrist -7.80596
rhand -14.6864 -6.15835
rfingers 7.12502
rthumb 11.4672 -35.8247
lclavicle -5.06901e-015 4.17448e-015
lhumerus -31.4191 7.303 77.4523
lradius 29.1364
lwrist 2.89124
lhand -12.9415 -3.60739
lfingers 7.12502
lthumb 13.1496 25.958
rfemur -4.45362 -6.94819 18.1918
rtibia 68.3486
rfoot 12.4006 -9.54021
rtoes -0.647332
lfemur -19.2052 5.39715 -17.9341
ltibia 32.4036
lfoot -17.2524 10.7211
ltoes -6.71561
